<svg xmlns="http://www.w3.org/2000/svg" xmlns:xlink="http://www.w3.org/1999/xlink" width="192.776" height="29.162" viewBox="0 0 192.776 29.162"><defs><linearGradient id="a" x1="1.02" y1="1.89" x2="0.399" y2="0.278" gradientUnits="objectBoundingBox"><stop offset="0" stop-color="#fefefe"/><stop offset="1" stop-color="#2fadbb"/></linearGradient></defs><path d="M134.23,226.8v4.07H130.3a23.088,23.088,0,0,0,3.018-4.07Z" transform="translate(-101.952 -220.514)" fill="#2aafbe"/><path d="M122.873,233.7v2.035a11.719,11.719,0,0,1-11.649,11.719,11.509,11.509,0,0,1-9.824-5.474,20.564,20.564,0,0,0,5.123-.28,7.228,7.228,0,0,0,4.7,1.684,7.649,7.649,0,0,0,7.3-5.614h-2.386a28.344,28.344,0,0,0,4.772-4.07Z" transform="translate(-93.333 -222.572)" fill="#2aafbe"/><path d="M110.449,220v4.07a7.579,7.579,0,0,0-4.7,13.543,20.559,20.559,0,0,1-5.123.281,11.087,11.087,0,0,1-1.825-6.246A11.649,11.649,0,0,1,110.448,220Zm.772,9.614v4.07h4.14a28.345,28.345,0,0,0,4.772-4.07Zm-.074-4.842v4.07H120.9a23.088,23.088,0,0,0,3.018-4.07ZM118.939,220H111.15v4.07h7.789Z" transform="translate(-92.556 -218.486)" fill="url(#a)"/><path d="M121.619,233.11l1.614,1.193,1.544,1.333a15.441,15.441,0,0,1,1.4,1.614,5.543,5.543,0,0,1,.912,2.175,2.879,2.879,0,0,1,.074,1.333,2.805,2.805,0,0,1-.491,1.333,2.879,2.879,0,0,1-1.053,1.193l-1.263.562a7.161,7.161,0,0,1-2.386.21l-2.246-.14a33.4,33.4,0,0,1-8-2.6,56.139,56.139,0,0,1-7.3-3.93,55.435,55.435,0,0,1-6.6-4.912,29.258,29.258,0,0,1-3.018-2.879,30.245,30.245,0,0,1-2.737-3.228,16.841,16.841,0,0,1-1.123-1.895,8.842,8.842,0,0,1-.912-2.175,6.316,6.316,0,0,1-.14-1.263,3.789,3.789,0,0,1,.351-1.476,3.509,3.509,0,0,1,1.053-1.193l1.263-.421a6.386,6.386,0,0,1,2.316,0,10.736,10.736,0,0,1,2.035.491,17.336,17.336,0,0,1,3.719,1.544l-1.965-.281-1.965-.281h-1.9a6.457,6.457,0,0,0-1.755.351l-.562.281a.632.632,0,0,0-.21.421,1.9,1.9,0,0,0,.21,1.123,10.526,10.526,0,0,0,1.965,2.879,39.509,39.509,0,0,0,5.684,5.123c2.035,1.614,4.208,3.088,6.386,4.491s4.491,2.666,6.807,3.86l3.509,1.614a20.7,20.7,0,0,0,3.509,1.193l1.755.421h1.614l.632-.14.351-.21a1.825,1.825,0,0,0,.421-1.123,4,4,0,0,0-.421-1.684,9.4,9.4,0,0,0-.842-1.685c-.281-.562-.7-1.053-1.053-1.614Z" transform="translate(-89.903 -217.843)" fill="#f1fbff"/><g transform="translate(40.768 2.707)"><path d="M158.035,233.7H154.1a2.526,2.526,0,0,0-1.476.351,1.476,1.476,0,0,0-.562,1.193v9.684H148V229.7h4.07v2.805l2.805-2.805h3.158Z" transform="translate(-148 -224.086)" fill="#f1fbff"/><path d="M173.828,229.7c3.719,0,5.544,1.476,5.544,4.561V240.3a4.178,4.178,0,0,1-1.4,3.509,6.466,6.466,0,0,1-4.14,1.123h-3.088a6.336,6.336,0,0,1-4.14-1.123,4.421,4.421,0,0,1-1.4-3.509v-6.035c0-3.088,1.825-4.561,5.544-4.561Zm-.562,11.228a2.315,2.315,0,0,0,1.476-.421,1.263,1.263,0,0,0,.562-1.123v-4.14a1.476,1.476,0,0,0-.562-1.193,2.879,2.879,0,0,0-1.476-.351H171.3a2.879,2.879,0,0,0-1.476.351,1.333,1.333,0,0,0-.491,1.193v8.489l2.805-2.805Z" transform="translate(-153.127 -224.086)" fill="#f1fbff"/><path d="M192.44,229.7v9.684a1.263,1.263,0,0,0,.491,1.123,2.316,2.316,0,0,0,1.476.421h4V229.7h4.065v15.228H198.4v-2.805l-2.879,2.805h-1.68c-3.719,0-5.544-1.543-5.544-4.561V229.7Z" transform="translate(-160.02 -224.086)" fill="#f1fbff"/><path d="M211.4,250.541V229.7h4.14v2.805l2.805-2.805h1.684a6.336,6.336,0,0,1,4.14,1.123,4.14,4.14,0,0,1,1.4,3.438v6.105c0,3.018-1.825,4.561-5.544,4.561h-4.491v5.614Zm8.07-16.841h-3.93v10.035l2.805-2.805h1.123a2.315,2.315,0,0,0,1.476-.421,1.263,1.263,0,0,0,.561-1.123v-4.143a1.263,1.263,0,0,0-.561-1.123,2.316,2.316,0,0,0-1.474-.421Z" transform="translate(-166.91 -224.086)" fill="#f1fbff"/><path d="M234.5,242.541V221.7h4.07v20.841Z" transform="translate(-173.8 -221.7)" fill="#f1fbff"/><path d="M253.3,235.314a2.1,2.1,0,0,0-.14-.7,1.544,1.544,0,0,0-.351-.561,3.158,3.158,0,0,0-1.543-.351H243.2l4-4h5.193a6.456,6.456,0,0,1,3.649,1.123,4.281,4.281,0,0,1,1.333,3.438v10.667H253.3v-2.805l-2.805,2.805h-7.3v-5.053c0-3.018,1.895-4.561,5.614-4.561Zm-3.93,4a2.386,2.386,0,0,0-1.544.421,1.263,1.263,0,0,0-.491,1.123H253.3v-1.614Z" transform="translate(-176.395 -224.086)" fill="#f1fbff"/><path d="M276.4,244.928v-9.684a1.476,1.476,0,0,0-.561-1.193,2.879,2.879,0,0,0-1.476-.351h-3.93v11.228H266.3V229.7h4.14v2.805l2.805-2.805h1.685c3.719,0,5.544,1.476,5.544,4.561v10.667Z" transform="translate(-183.285 -224.086)" fill="#f1fbff"/><path d="M295.5,240.928h8.068v4h-8.63a6.336,6.336,0,0,1-4.14-1.123,4.421,4.421,0,0,1-1.4-3.509v-6.035c0-3.088,1.895-4.561,5.544-4.561h8.629l-4,4H295.5a2.879,2.879,0,0,0-1.476.351,1.476,1.476,0,0,0-.491,1.193v4.14a1.263,1.263,0,0,0,.491,1.123A2.316,2.316,0,0,0,295.5,240.928Z" transform="translate(-190.171 -224.086)" fill="#f1fbff"/><path d="M316.64,221.7v4H312.5v-4Zm-4.14,20.841h4.14V227.314H312.5Z" transform="translate(-197.064 -221.7)" fill="#f1fbff"/><path d="M331.3,244.928v-9.684a1.476,1.476,0,0,0-.491-1.193,3.158,3.158,0,0,0-1.544-.351h-3.93v11.228H321.2V229.7h4.14v2.805l2.805-2.805h1.684c3.719,0,5.614,1.476,5.614,4.561v10.667Z" transform="translate(-199.66 -224.086)" fill="#f1fbff"/><path d="M358.543,245.98a4.207,4.207,0,0,1-1.4,3.438,6.548,6.548,0,0,1-4.208,1.123H344.3l4-4h4.07a2.947,2.947,0,0,0,1.544-.351,1.544,1.544,0,0,0,.491-1.123V242.12l-2.805,2.805h-1.69a6.413,6.413,0,0,1-4.208-1.193,4.208,4.208,0,0,1-1.4-3.438v-6.035c0-3.088,1.895-4.561,5.614-4.561h3.018c3.719,0,5.614,1.476,5.614,4.561Zm-10.1-6.6a1.193,1.193,0,0,0,.491,1.123,2.386,2.386,0,0,0,1.544.421h3.93v-5.684a1.544,1.544,0,0,0-.491-1.193,2.947,2.947,0,0,0-1.543-.351h-1.895a2.948,2.948,0,0,0-1.544.351,1.333,1.333,0,0,0-.491,1.193Z" transform="translate(-206.545 -224.085)" fill="#f1fbff"/></g></svg>